<!DOCTYPE svg PUBLIC "-//W3C//DTD SVG 1.1//EN" "http://www.w3.org/Graphics/SVG/1.1/DTD/svg11.dtd">

<!-- Uploaded to: SVG Repo, www.svgrepo.com, Transformed by: SVG Repo Mixer Tools -->
<svg fill="#000000" version="1.1" id="Capa_1" xmlns="http://www.w3.org/2000/svg" xmlns:xlink="http://www.w3.org/1999/xlink" width="138px" height="138px" viewBox="-5.9 -5.9 48.66 48.66" xml:space="preserve" transform="matrix(1, 0, 0, 1, 0, 0)rotate(0)" stroke="#000000" stroke-width="0.00036863">

<g id="SVGRepo_bgCarrier" stroke-width="0" transform="translate(2.7647250000000003,2.7647250000000003), scale(0.85)">

<path transform="translate(-5.9, -5.9), scale(1.520625)" d="M16,27.790418463093893C18.914914032179354,27.56857804241521,21.779733850357676,27.379013339907576,24.28748191429188,25.87663634491689C27.230386359236302,24.113559742395648,30.202458606961972,21.96188727076402,31.205182329350556,18.68108389125609C32.28104762555004,15.160969206766076,31.701440293486588,11.18129738146854,29.72863651540287,8.073768012225631C27.806650064496857,5.046285294568387,24.328573295309607,3.5967233502050373,20.92055152406311,2.4808957963735825C17.631339979894946,1.4039681481030264,14.167859234492106,0.8563371261594315,10.867430421020126,1.8983809779730763C7.448024686741065,2.9779893936181443,4.300788022794018,5.106809981613036,2.6019417662019038,8.264627472098377C0.935495187754328,11.362220401394664,1.225440278581673,15.035360600586078,1.948048959493354,18.477738100035705C2.646935049633719,21.80710545325127,3.746120923548886,25.344809674914018,6.581836770841996,27.224129863987727C9.284942252370904,29.015564894222617,12.766509548091207,28.036504239275647,16,27.790418463093893" fill="#4CAF50" strokewidth="0"/>

</g>

<g id="SVGRepo_tracerCarrier" stroke-linecap="round" stroke-linejoin="round" stroke="#ffffff" stroke-width="0.147452"/>

<g id="SVGRepo_iconCarrier"> <g> <path d="M5.134,30.463c0-1.326,0.698-2.086,1.979-2.086c1.281,0,1.979,0.76,1.979,2.086v4.314c0,1.324-0.698,2.086-1.979,2.086 c-1.279,0-1.979-0.762-1.979-2.086V30.463z M6.438,34.859c0,0.597,0.262,0.818,0.676,0.818s0.676-0.225,0.676-0.818v-4.479 c0-0.592-0.262-0.816-0.676-0.816s-0.676,0.226-0.676,0.816V34.859z M11.098,30.76v6.008H9.926v-8.297h1.636l1.337,4.967v-4.967 h1.162v8.297h-1.339L11.098,30.76z M16.837,28.471h1.304v7.111h2.146v1.186h-3.446L16.837,28.471L16.837,28.471z M20.858,28.471 h1.304v8.297h-1.304V28.471z M24.271,30.76v6.008H23.1v-8.297h1.635l1.34,4.967v-4.967h1.159v8.297h-1.338L24.271,30.76z M29.477,31.967h1.79v1.187h-1.79v2.432h2.253v1.187h-3.556v-8.297h3.556v1.188h-2.253V31.967z M28.937,11.196h-0.532 c-1.33-3.994-5.297-6.898-9.973-6.898c-4.674,0-8.643,2.904-9.973,6.898H7.925c-1.104,0-2.007,0.9-2.007,2.009v2.338 c0,1.104,0.902,2.007,2.007,2.007h0.478c1.913,7.402,9.733,9.482,9.821,9.508l0.204,0.051l0.201-0.049 c0.091-0.021,7.94-2.021,9.84-9.51h0.468c1.106,0,2.009-0.9,2.009-2.007v-2.339C30.945,12.097,30.043,11.196,28.937,11.196z M25.188,20.717h-5.265c-0.255-0.463-0.746-0.777-1.313-0.777c-0.826,0-1.496,0.67-1.496,1.496c0,0.828,0.67,1.496,1.496,1.496 c0.658,0,1.218-0.426,1.417-1.018h4.163c-2.218,2.309-4.975,3.232-5.757,3.459c-1.366-0.408-8.776-3.004-8.776-11.24 c0-0.138,0.004-0.271,0.014-0.406c2.269-0.426,4.923-1.139,5.822-2.229c0,0,0.358,2.034-0.959,2.872c0,0,4.67-0.717,5.51-2.152 c0,0,0.164,3.723,7.08,3.312C26.899,17.668,26.154,19.37,25.188,20.717z M32.967,12.416C32.679,5.304,26.527,0,18.432,0 C10.333,0,4.185,5.302,3.896,12.416c-0.582,0.269-0.971,0.8-0.971,1.425v1.062c0,0.902,0.809,1.609,1.841,1.609h0.802v-1.078 v-2.125v-0.687C5.748,6.359,11.215,1.677,18.432,1.677c7.221,0,12.689,4.688,12.863,10.955v0.678v2.125v1.076h0.802 c1.032,0,1.841-0.705,1.841-1.607v-1.062C33.938,13.216,33.549,12.684,32.967,12.416z"/> </g> </g>

</svg>
